<?xml version="1.0" encoding="utf-8"?>
<!-- Generator: Adobe Illustrator 14.0.0, SVG Export Plug-In . SVG Version: 6.00 Build 43363)  -->
<!DOCTYPE svg PUBLIC "-//W3C//DTD SVG 1.1//EN" "http://www.w3.org/Graphics/SVG/1.1/DTD/svg11.dtd">
<svg version="1.1" id="Layer_1" xmlns="http://www.w3.org/2000/svg" xmlns:xlink="http://www.w3.org/1999/xlink" x="0px" y="0px"
	 width="81px" height="85px" viewBox="0 0 81 85" enable-background="new 0 0 81 85" xml:space="preserve">
<g>
	<rect width="81" height="85"/>
	<g>
		<g>
			<rect x="14.498" y="28.912" fill="#FFFFFF" width="8.297" height="5.513"/>
			<polygon fill="#FFFFFF" points="23.841,28.912 23.841,34.425 23.841,56.088 29.82,56.088 29.82,34.425 39.165,34.425 
				39.165,28.912 			"/>
			<g>
				<path fill="#FFFFFF" d="M55.554,33.959c2.718,0,4.854,1.164,6.949,3.067l3.805-4.388c-2.523-2.484-5.591-4.192-10.714-4.192
					c-8.221,0-13.989,6.14-14.163,13.705h6.255C47.812,37.617,51.063,33.959,55.554,33.959"/>
				<path fill="#FFFFFF" d="M62.697,47.857c-2.136,1.94-4.038,3.184-7.144,3.184c-4.423,0-7.546-3.502-7.851-7.844h-6.266
					c0.305,7.508,6.139,13.356,13.922,13.356c5.242,0,8.348-1.864,11.143-4.853L62.697,47.857z"/>
			</g>
		</g>
	</g>
</g>
</svg>
